<?xml version="1.0" encoding="UTF-8"?>
<!DOCTYPE svg PUBLIC "-//W3C//DTD SVG 1.1//EN" "http://www.w3.org/Graphics/SVG/1.1/DTD/svg11.dtd">
<!-- Creator: CorelDRAW X6 -->
<svg xmlns="http://www.w3.org/2000/svg" xml:space="preserve" width="129.524mm" height="148.696mm" version="1.1" style="shape-rendering:geometricPrecision; text-rendering:geometricPrecision; image-rendering:optimizeQuality; fill-rule:evenodd; clip-rule:evenodd"
viewBox="0 0 12952 14870"
 xmlns:xlink="http://www.w3.org/1999/xlink">
 <defs>
  <style type="text/css">
   <![CDATA[
    .fil2 {fill:#FFF212}
    .fil3 {fill:#14A354}
    .fil4 {fill:#3465AE}
    .fil5 {fill:#956AAC}
    .fil1 {fill:#ED3237}
    .fil0 {fill:#F7F7F8}
   ]]>
  </style>
 </defs>
 <g id="Camada_x0020_1">
  <metadata id="CorelCorpID_0Corel-Layer"/>
  <g id="_732979616">
   <path class="fil0" d="M4293 4082c508,-241 190,-580 930,146 742,728 368,443 144,941 240,169 2146,2142 2671,2632 233,218 238,443 260,834 30,516 683,981 745,1426 -90,152 -359,422 -512,512 -425,-60 -922,-700 -1381,-742 -404,-37 -566,9 -831,-261 -101,-103 -158,-181 -260,-281 -97,-94 -195,-157 -291,-249 -542,-520 -1660,-1817 -2201,-2132 -394,393 -344,376 -867,-158 -724,-739 -392,-421 -146,-931 -455,-281 -2310,-2015 -2490,-2577 -177,-551 41,-1043 324,-1325 278,-277 742,-491 1289,-338 569,159 2323,2038 2616,2502zm1317 4260l2010 -440c-170,-169 -307,-308 -480,-479 -357,-355 -676,-676 -1032,-1032 -280,-280 -733,-793 -1023,-1006l-1216 1235c153,195 312,282 503,523l1238 1198z"/>
   <g>
    <circle class="fil1" cx="8606" cy="2075" r="2075"/>
    <circle class="fil2" cx="11201" cy="6867" r="1751"/>
    <circle class="fil3" cx="10642" cy="11948" r="1376"/>
    <circle class="fil4" cx="6326" cy="13669" r="1201"/>
    <circle class="fil5" cx="2082" cy="12154" r="1001"/>
   </g>
  </g>
 </g>
</svg>
